<svg xmlns="http://www.w3.org/2000/svg" version="1.1" xmlns:xlink="http://www.w3.org/1999/xlink" xmlns:svgjs="http://svgjs.com/svgjs" width="471.4" height="475.7"><svg version="1.1" id="SvgjsSvg1000" xmlns="http://www.w3.org/2000/svg" xmlns:xlink="http://www.w3.org/1999/xlink" x="0px" y="0px" viewBox="0 0 471.4 475.7" style="enable-background:new 0 0 471.4 475.7;" xml:space="preserve">
<style type="text/css">
	.st0{fill:#5A2A27;}
	.st1{fill:#FFFFFF;}
</style>
<path d="M235.7,370.3c-59.9,0-116.4-8.8-159-24.6c-25.2-9.4-44.3-21-55.9-33.8v55.8v11c0,18.8,22.1,37.9,60.6,52.2
	c41.1,15.4,95.9,23.8,154.3,23.8s113.2-8.5,154.3-23.8c38.5-14.4,60.6-33.4,60.6-52.2v-11v-55.8c-11.6,12.8-30.8,24.4-55.9,33.8
	C352.1,361.5,295.6,370.3,235.7,370.3L235.7,370.3z"></path>
<path d="M235.7,275c-59.9,0-116.4-8.8-159-24.6c-25.2-9.4-44.3-21-55.9-33.8v64.4c0,18.8,22.1,37.9,60.6,52.2
	c41.1,15.4,95.9,23.8,154.3,23.8c58.4,0,113.2-8.5,154.3-23.8c38.5-14.4,60.6-33.4,60.6-52.2v-64.4c-11.6,12.8-30.8,24.4-55.9,33.8
	C352.1,266.3,295.7,275,235.7,275L235.7,275z"></path>
<path d="M81.4,237.9c41.1,15.3,95.9,23.8,154.3,23.8s113.2-8.5,154.3-23.8c38.5-14.4,60.6-33.4,60.6-52.2c0-6.6-2.8-13.3-8.2-19.9
	c0.3,1.8,0.5,3.6,0.5,5.5c0,20.8-21.7,39.9-61,53.8c-38.5,13.6-90.3,21.1-146,21.1s-107.6-7.5-146-21.1c-39.3-13.9-61-33-61-53.8
	c0-2.1,0.2-4.1,0.6-6.1c-5.8,6.8-8.8,13.8-8.8,20.6C20.8,204.5,42.9,223.6,81.4,237.9L81.4,237.9z"></path>
<path d="M180.4,230.1c-30.3-3-58.3-8.5-81.8-16.2c-35.9-11.7-56.4-27.3-56.4-42.7s20.6-30.9,56.4-42.7c14.4-4.7,30.4-8.6,47.6-11.6
	c-10.9,13.3-16.2,27.8-16.2,43.9c0,7.6,0.9,14.8,2.8,21.5c1.8,6.7,4.6,12.9,8.2,18.5c4.1,6.4,9.4,12.1,15.8,16.9
	C163.6,222.8,171.4,226.9,180.4,230.1L180.4,230.1z"></path>
<path class="st0" d="M316.4,205.7c-15.5,15.6-41.6,23.2-79.8,23.2c-33.6,0-57.9-6-74.2-18.4c-5.5-4.2-10.1-9.1-13.6-14.6
	c-3.1-4.8-5.5-10.1-7-15.9c-1.6-5.9-2.4-12.3-2.4-19.1c0-17.1,7.1-32.2,21.6-46.2c23.6-3.3,48.9-5,75-5c27.6,0,54.4,2,79.2,5.7
	c10,11.7,17.3,26.5,17.3,45c0,4,0,10.6-1.6,18.1c-1.1,5-2.9,10.5-5.9,15.9C322.8,198.2,320,202,316.4,205.7L316.4,205.7z"></path>
<path d="M429.6,171.2c0,15.4-20.6,30.9-56.4,42.7c-22.8,7.4-49.8,12.9-79,15.9c11.8-4.2,21.3-10.1,28.9-17.7c3.9-4,7.3-8.4,10-13.3
	c3.1-5.6,5.4-11.8,6.8-18.4c1.8-8.5,1.8-15.7,1.8-20.1c0-15.5-4.4-29.8-13.2-42.8c16.1,2.9,31.2,6.6,44.7,11.1
	C409,140.3,429.6,155.9,429.6,171.2L429.6,171.2z"></path>
<path class="st1" d="M132.9,182.3c1.4,5.2,3.4,10.2,6,14.8c-29.4-0.9-51-6.9-65.9-18.3c-5.5-4.2-10.1-9.1-13.6-14.6
	c-3.1-4.8-5.5-10.1-7-15.9c-1.6-5.9-2.4-12.3-2.4-19.1c0-17.7,7.5-33.2,23.1-47.6C80.2,75,88.7,69,98.1,62.8c1-0.6,2-1.3,3-1.9
	c4.6-2.9,9.5-5.9,14.6-9c1.4-0.8,2.7-1.6,4.1-2.5l0.8-0.5c3.3-2.3,6-4.7,8.1-6.7c3.1-2.9,4.8-5.1,5.1-5.4c3-4.1,7.5-6.6,12.6-6.6
	h0.3c5.1,0.1,9.7,2.6,12.6,6.8c0.4,0.6,2.9,3.4,7.5,6.7c2.4,1.7,5.4,3.6,9,5.3l1.3,0.6c1.4,0.7,3,1.4,4.8,2.3
	c4.3,2.1,9.5,4.8,15,8.1c1.6,1,3.2,2,4.9,3.1c2.7,1.8,5.5,3.7,8.2,5.8c-1.6,1.4-3.2,2.7-4.9,3.9l-0.5,0.3l-2.8,1.7l-1.3,0.8
	c-4.5,2.7-9.7,5.9-14.8,9.1c-0.8,0.5-1.7,1.1-2.5,1.6l-0.6,0.4c-11.4,7.4-19.6,13.5-26.4,19.8c-3.7,3.4-7,6.9-9.9,10.5
	c-10.9,13.3-16.2,27.8-16.2,43.9C130.2,168.4,131.1,175.6,132.9,182.3L132.9,182.3z"></path>
<g>
	<path d="M152.4,88.7c0,16-5.9,28.9-5.9,28.9s-5.9-13-5.9-28.9c0-16,5.9-28.9,5.9-28.9S152.4,72.7,152.4,88.7z"></path>
	<path d="M183.5,77.8c9.7,12.7,12.8,26.6,12.8,26.6s-12.6-6.7-22.2-19.5c-9.7-12.7-12.8-26.6-12.8-26.6S173.9,65,183.5,77.8z"></path>
	<path d="M107,79.1c-9.7,12.7-12.8,26.6-12.8,26.6s12.6-6.7,22.2-19.5c9.7-12.7,12.8-26.6,12.8-26.6S116.6,66.3,107,79.1z"></path>
</g>
<path class="st1" d="M421.9,128.8c0,4,0,10.6-1.6,18.1c-1.1,5-2.9,10.5-5.9,15.9c-2.2,3.9-4.9,7.7-8.5,11.3c-0.5,0.5-1,1-1.5,1.4
	c-0.5,0.5-1,0.9-1.5,1.4c-0.5,0.5-1.1,0.9-1.6,1.3c-0.5,0.4-1,0.8-1.6,1.2c-0.1,0.1-0.1,0.1-0.2,0.2c-0.5,0.4-1.1,0.8-1.6,1.2
	c-0.6,0.4-1.2,0.8-1.8,1.2c-0.6,0.4-1.2,0.8-1.9,1.2c-0.6,0.4-1.2,0.7-1.8,1c-0.1,0.1-0.2,0.1-0.3,0.2c-0.4,0.2-0.8,0.5-1.3,0.7
	c-0.4,0.2-0.8,0.4-1.2,0.6c-2.5,1.3-5.2,2.4-8.1,3.5c-2.1,0.8-4.3,1.5-6.6,2.2c-0.7,0.2-1.5,0.4-2.2,0.6c0,0-0.1,0-0.1,0
	c-0.8,0.2-1.6,0.4-2.4,0.6c-0.8,0.2-1.6,0.4-2.4,0.6c-0.7,0.2-1.5,0.3-2.2,0.5c-1,0.2-2,0.4-3,0.6c-0.8,0.2-1.6,0.3-2.5,0.4
	c-0.9,0.1-1.8,0.3-2.7,0.4c-0.9,0.1-1.8,0.3-2.7,0.4c-2.8,0.4-5.6,0.7-8.6,0.9c-2.9,0.2-6,0.4-9.1,0.6c-1,0-2.1,0.1-3.2,0.1
	c2.7-5.1,4.7-10.8,5.9-16.7c1.8-8.5,1.8-15.7,1.8-20.1c0-15.5-4.4-29.8-13.2-42.8c-7.5-11.2-18.3-21.4-32.2-30.5
	c-1.7-1.1-3.5-2.2-5.2-3.3c-4.8-2.9-9.8-5.6-15.7-8.5c-1.8-0.9-3.4-1.7-4.9-2.4l-1.3-0.6c-1.1-0.6-2.3-1.1-3.4-1.8
	c0.1-0.1,0.2-0.1,0.2-0.2c0.8-0.6,1.6-1.2,2.5-1.8c0.9-0.6,1.8-1.2,2.7-1.9c0.8-0.5,1.5-1,2.3-1.6c1.1-0.8,2.3-1.5,3.5-2.3
	c1-0.6,2-1.3,3-1.9c4.6-2.9,9.5-5.9,14.6-9c1.4-0.8,2.7-1.6,4.1-2.5l0.8-0.5c3.3-2.3,6-4.7,8.1-6.7c3.1-2.9,4.8-5.1,5.1-5.4
	c3-4.1,7.5-6.6,12.6-6.6h0.3c5.1,0.1,9.7,2.6,12.6,6.8c0.4,0.6,2.9,3.4,7.5,6.7c2.4,1.7,5.4,3.6,9,5.3l1.3,0.6
	c1.4,0.7,3,1.4,4.8,2.3c4.3,2.1,9.5,4.8,15,8.1c1.6,1,3.2,2,4.9,3.1C400.3,76,421.9,96.8,421.9,128.8L421.9,128.8z"></path>
<g>
	<path d="M332.6,88.7c0,16-5.9,28.9-5.9,28.9s-5.9-13-5.9-28.9c0-16,5.9-28.9,5.9-28.9S332.6,72.7,332.6,88.7z"></path>
	<path d="M363.8,77.8c9.7,12.7,12.8,26.6,12.8,26.6s-12.6-6.7-22.2-19.5c-9.7-12.7-12.8-26.6-12.8-26.6S354.1,65,363.8,77.8z"></path>
	<path d="M287.2,79.1c-9.7,12.7-12.8,26.6-12.8,26.6S287,99,296.7,86.2c9.7-12.7,12.8-26.6,12.8-26.6S296.9,66.3,287.2,79.1z"></path>
</g>
<path class="st1" d="M291.2,94.7c-1.7-1.1-3.3-2.1-4.9-3.1c-5.5-3.3-10.7-6-15-8.2l0,0c-1.7-0.9-3.4-1.6-4.8-2.3l-1.3-0.6
	c-3.6-1.7-6.6-3.6-9-5.3c-4.6-3.3-7-6.1-7.5-6.7c-2.9-4.2-7.4-6.7-12.6-6.8c-0.1,0-0.2,0-0.3,0c-5,0-9.6,2.5-12.6,6.6
	c-0.2,0.3-2,2.5-5.1,5.4c-2.1,2-4.8,4.4-8.1,6.7l-0.8,0.5c-1.4,0.8-2.7,1.7-4.1,2.5c-5.1,3.1-10,6.1-14.6,9c-1,0.6-2,1.3-3,1.9
	c-9.5,6.1-18,12.2-25.2,18.9c-15.5,14.4-23.1,29.9-23.1,47.6c0,6.8,0.8,13.2,2.4,19.1c1.6,5.8,3.9,11.1,7,15.9
	c3.5,5.5,8.1,10.4,13.6,14.6c16.3,12.4,40.6,18.4,74.2,18.4c38.2,0,64.3-7.6,79.8-23.2c3.6-3.6,6.4-7.4,8.5-11.3
	c3-5.4,4.8-10.8,5.9-15.9c1.6-7.5,1.6-14.1,1.6-18.2C332.4,128.4,310.8,107.6,291.2,94.7L291.2,94.7z"></path>
<path d="M385.7,55.4c-1.7-1.1-3.5-2.2-5.2-3.3c-4.8-2.9-9.8-5.6-15.7-8.5c-1.8-0.9-3.4-1.7-4.9-2.4l-1.3-0.6
	c-2.7-1.3-5.3-2.8-7.6-4.5c-3.2-2.3-5-4.2-5.6-4.8c-4.6-6.4-11.7-10.2-19.7-10.3c-0.2,0-0.3,0-0.5,0c-7.8,0-15.1,3.7-19.9,10.2
	c-0.3,0.4-1.7,2.1-4.1,4.4c-2.1,2-4.4,3.9-6.8,5.7l-0.5,0.3l-2.8,1.7l-1.3,0.8c-4.5,2.7-9.7,5.9-14.8,9.1c-0.8,0.5-1.7,1.1-2.5,1.6
	l-0.6,0.4c-5.4,3.5-10.1,6.7-14.2,9.7c-1-0.9-1.6-1.6-1.9-1.9c-4.6-6.4-11.7-10.2-19.7-10.3c-0.2,0-0.3,0-0.5,0
	c-7.6,0-14.7,3.5-19.5,9.7c-3-2.4-6.2-4.6-9.6-6.9c-1.7-1.1-3.5-2.2-5.2-3.3c-4.8-2.9-9.8-5.6-15.7-8.5c-1.8-0.9-3.4-1.7-4.9-2.4
	l-1.3-0.6c-2.7-1.3-5.3-2.8-7.6-4.5c-3.2-2.3-5-4.2-5.6-4.8c-4.6-6.4-11.7-10.2-19.7-10.3c-0.2,0-0.3,0-0.5,0
	c-7.8,0-15.1,3.7-19.9,10.2c-0.3,0.4-1.7,2.1-4.1,4.4c-2.1,2-4.4,3.9-6.8,5.7l-0.5,0.3l-2.8,1.7L111,44c-4.5,2.7-9.7,5.9-14.8,9.1
	c-0.8,0.5-1.7,1.1-2.5,1.6l-0.6,0.4c-11.4,7.4-19.6,13.5-26.4,19.8c-17.5,16.2-26,34-26,54.3c0,7.6,0.9,14.8,2.8,21.5
	c1.8,6.7,4.6,12.9,8.2,18.5c4.1,6.4,9.4,12.1,15.8,16.9c17.6,13.4,43.1,20.1,77.8,20.3c3.4,4.1,7.3,7.9,11.7,11.3
	c6.7,5.1,14.5,9.2,23.6,12.4c17.9,1.8,36.5,2.7,55.5,2.7c19.9,0,39.5-1,58.2-3c11.8-4.2,21.3-10.1,28.9-17.7c1.8-1.8,3.4-3.7,5-5.7
	c39.8-0.2,67.5-8.7,84.5-25.9c3.9-4,7.3-8.4,10-13.3c3.1-5.6,5.4-11.8,6.8-18.4c1.8-8.5,1.8-15.7,1.8-20.1
	C431.1,99.9,415.8,75.2,385.7,55.4L385.7,55.4z M73,178.8c-5.5-4.2-10.1-9.1-13.6-14.6c-3.1-4.8-5.5-10.1-7-15.9
	c-1.6-5.9-2.4-12.3-2.4-19.1c0-17.7,7.5-33.2,23.1-47.6c7.2-6.7,15.7-12.7,25.2-18.9c1-0.6,2-1.3,3-1.9c4.6-2.9,9.5-5.9,14.6-9
	c1.4-0.8,2.7-1.6,4.1-2.5l0.8-0.5c3.3-2.3,6-4.7,8.1-6.7c3.1-2.9,4.8-5.1,5.1-5.4c3-4.1,7.5-6.6,12.6-6.6h0.3
	c5.1,0.1,9.7,2.6,12.6,6.8c0.4,0.6,2.9,3.4,7.5,6.7c2.4,1.7,5.4,3.6,9,5.3l1.3,0.6c1.4,0.7,3,1.4,4.8,2.3c4.3,2.1,9.5,4.8,15,8.1
	c1.6,1,3.2,2,4.9,3.1c2.7,1.8,5.5,3.7,8.2,5.8c-1.6,1.4-3.2,2.7-4.9,3.9l-0.5,0.3l-2.8,1.7l-1.3,0.8c-4.5,2.7-9.7,5.9-14.8,9.1
	c-0.8,0.5-1.7,1.1-2.5,1.6l-0.6,0.4c-11.4,7.4-19.6,13.5-26.4,19.8c-3.7,3.4-7,6.9-9.9,10.5c-10.9,13.3-16.2,27.8-16.2,43.9
	c0,7.6,0.9,14.8,2.8,21.5c1.4,5.2,3.4,10.2,6,14.8C109.6,196.2,87.9,190.2,73,178.8L73,178.8z M330.8,178.5
	c-1.1,5-2.9,10.5-5.9,15.9c-0.5,1-1.1,1.9-1.7,2.9c-1.9,2.9-4.1,5.7-6.8,8.4c-0.2,0.2-0.4,0.4-0.6,0.6
	c-15.5,15.2-41.4,22.6-79.2,22.6c-33.6,0-57.9-6-74.2-18.4c-1.7-1.3-3.3-2.7-4.9-4.1c-2.9-2.8-5.6-5.8-7.8-9c-0.3-0.5-0.7-0.9-1-1.4
	c-3.1-4.8-5.5-10.1-7-15.9c-1.6-5.9-2.4-12.3-2.4-19.1c0-17.1,7.1-32.2,21.6-46.2c0.5-0.5,1-0.9,1.5-1.4
	c7.2-6.7,15.7-12.7,25.2-18.9c1-0.6,2-1.3,3-1.9c4.6-2.9,9.5-5.9,14.6-9c1.4-0.8,2.7-1.6,4.1-2.5l0.8-0.5c2.7-1.9,5.1-3.9,7-5.6
	c0.4-0.4,0.8-0.7,1.1-1.1c3.1-2.9,4.8-5.1,5.1-5.4c0.1-0.1,0.1-0.1,0.1-0.2c3-4,7.5-6.4,12.4-6.4h0.3c5.1,0.1,9.7,2.6,12.6,6.8
	c0.2,0.2,0.8,1,1.9,2c1.2,1.2,3.1,2.9,5.6,4.6c0.6,0.4,1.1,0.8,1.8,1.2c2,1.4,4.4,2.8,7.2,4.1l1.3,0.6c1.4,0.7,3,1.4,4.8,2.3
	c4.3,2.1,9.5,4.8,15,8.1c1.6,1,3.2,2,4.9,3.1c8.2,5.4,16.8,12.2,24,20.6c10,11.7,17.3,26.5,17.3,45
	C332.4,164.3,332.4,170.9,330.8,178.5L330.8,178.5z M420.3,146.9c-1.1,5-2.9,10.5-5.9,15.9c-2.2,3.9-4.9,7.7-8.5,11.3
	c-0.5,0.5-1,1-1.5,1.4c-0.5,0.5-1,0.9-1.5,1.4c-0.5,0.5-1,0.9-1.6,1.3c-0.5,0.4-1,0.8-1.6,1.2c-0.1,0.1-0.1,0.1-0.2,0.2
	c-0.5,0.4-1.1,0.8-1.6,1.2c-0.6,0.4-1.2,0.8-1.8,1.2c-0.6,0.4-1.2,0.8-1.9,1.2c-0.6,0.4-1.2,0.7-1.8,1c-0.1,0.1-0.2,0.1-0.3,0.2
	c-0.4,0.2-0.8,0.5-1.3,0.7c-0.4,0.2-0.8,0.4-1.2,0.6c-2.5,1.3-5.2,2.4-8.1,3.5c-2.1,0.8-4.3,1.5-6.6,2.2c-0.7,0.2-1.5,0.4-2.2,0.6
	c0,0-0.1,0-0.1,0c-0.8,0.2-1.6,0.4-2.4,0.6c-0.8,0.2-1.6,0.4-2.4,0.6c-0.7,0.2-1.5,0.3-2.2,0.5c-1,0.2-2,0.4-3,0.6
	c-0.8,0.2-1.6,0.3-2.5,0.4c-0.9,0.1-1.8,0.3-2.7,0.4c-0.9,0.1-1.8,0.3-2.7,0.4c-2.8,0.4-5.6,0.7-8.6,0.9c-2.9,0.2-6,0.4-9.1,0.6
	c-1,0-2.1,0.1-3.2,0.1c2.7-5.1,4.7-10.8,5.9-16.7c1.8-8.5,1.8-15.7,1.8-20.1c0-15.5-4.4-29.8-13.2-42.8
	c-7.5-11.2-18.3-21.4-32.2-30.5c-1.7-1.1-3.5-2.2-5.2-3.3c-4.8-2.9-9.8-5.6-15.7-8.5c-1.8-0.9-3.4-1.7-4.9-2.4l-1.3-0.6
	c-1.1-0.6-2.3-1.1-3.4-1.8c0.1-0.1,0.2-0.1,0.2-0.2c0.8-0.6,1.6-1.2,2.5-1.8c0.9-0.6,1.8-1.2,2.7-1.9c0.8-0.5,1.5-1,2.3-1.6
	c1.1-0.8,2.3-1.5,3.5-2.3c1-0.6,2-1.3,3-1.9c4.6-2.9,9.5-5.9,14.6-9c1.4-0.8,2.7-1.6,4.1-2.5l0.8-0.5c3.3-2.3,6-4.7,8.1-6.7
	c3.1-2.9,4.8-5.1,5.1-5.4c3-4.1,7.5-6.6,12.6-6.6h0.3c5.1,0.1,9.7,2.6,12.6,6.8c0.4,0.6,2.9,3.4,7.5,6.7c2.4,1.7,5.4,3.6,9,5.3
	l1.3,0.6c1.4,0.7,3,1.4,4.8,2.3c4.3,2.1,9.5,4.8,15,8.1c1.6,1,3.2,2,4.9,3.1c19.7,12.9,41.3,33.7,41.3,65.6
	C421.9,132.7,421.9,139.3,420.3,146.9L420.3,146.9z"></path>
<g>
	<path d="M243.1,114.1c0,16-5.9,28.9-5.9,28.9s-5.9-13-5.9-28.9c0-16,5.9-28.9,5.9-28.9S243.1,98.1,243.1,114.1z"></path>
	<path d="M274.2,103.2c9.7,12.7,12.8,26.6,12.8,26.6s-12.6-6.7-22.2-19.5C255.1,97.6,252,83.7,252,83.7S264.6,90.5,274.2,103.2z"></path>
	<path d="M197.7,104.5c-9.7,12.7-12.8,26.6-12.8,26.6s12.6-6.7,22.2-19.5c9.7-12.7,12.8-26.6,12.8-26.6S207.4,91.8,197.7,104.5z"></path>
</g>
</svg><style>@media (prefers-color-scheme: light) { :root { filter: none; } }
@media (prefers-color-scheme: dark) { :root { filter: contrast(0.9090909090909091) brightness(1.5); } }
</style></svg>