<?xml version="1.0" encoding="utf-8"?>
<!-- Generator: Adobe Illustrator 28.0.0, SVG Export Plug-In . SVG Version: 6.00 Build 0)  -->
<svg version="1.1" id="Layer_1" xmlns="http://www.w3.org/2000/svg" xmlns:xlink="http://www.w3.org/1999/xlink" x="0px" y="0px"
	 viewBox="0 0 96 24" style="enable-background:new 0 0 96 24;" xml:space="preserve">
<style type="text/css">
	.st0{fill:#5A2A27;}
</style>
<g>
	<g>
		<path class="st0" d="M19.1,12.3v5c0,2.1-0.4,3.6-1.3,4.6c-0.9,0.9-2.4,1.4-4.4,1.4H4.7V1.8h4.2v7.7c2.7-1.3,4.9-1.9,6.5-1.9
			C17.9,7.6,19.1,9.2,19.1,12.3L19.1,12.3z M8.9,20h5.9v-9c-0.8,0.1-1.7,0.4-2.8,0.7c-1,0.4-2.1,0.8-3.2,1.4V20z"/>
		<path class="st0" d="M32.6,8.1h4.2v15.3h-2.8l-0.8-1.8c-3,1.5-5.3,2.2-7,2.2c-2.4,0-3.6-1.3-3.6-3.9V8.1h4.2v12.3
			c1.3-0.3,3.2-1,5.8-2.3V8.1L32.6,8.1z"/>
		<path class="st0" d="M54.9,11.5v11.8h-4.2V11.1c-1.3,0.3-3.2,1-5.8,2.3v10h-4.2V8.1h2.8l0.8,1.8c3-1.5,5.3-2.2,7-2.2
			C53.7,7.6,54.9,8.9,54.9,11.5L54.9,11.5z"/>
	</g>
	<path class="st0" d="M58.6,23.3V3h8.1c1.4,0,2.6,0.2,3.6,0.7c1,0.4,1.7,1.3,2.2,2.5c0.5,1.2,0.8,2.8,0.8,5v4.2c0,2.1-0.3,3.8-0.8,5
		c-0.5,1.2-1.3,2-2.2,2.5c-1,0.4-2.1,0.7-3.6,0.7L58.6,23.3L58.6,23.3z M63.1,7v12.3h5.5V7L63.1,7L63.1,7z"/>
	<path class="st0" d="M91.3,23.3H77.5V3H82v16.3h9.3L91.3,23.3L91.3,23.3z"/>
</g>
</svg>
