<?xml version="1.0" encoding="UTF-8"?>
<svg id="Layer_1" data-name="Layer 1" xmlns="http://www.w3.org/2000/svg" xmlns:xlink="http://www.w3.org/1999/xlink" viewBox="0 0 1789.72 410.11">
  <defs>
    <style>
      .cls-1 {
        fill: url(#linear-gradient);
      }

      .cls-1, .cls-2, .cls-3, .cls-4, .cls-5 {
        stroke-width: 0px;
      }

      .cls-2 {
        fill: url(#linear-gradient-2);
      }

      .cls-3 {
        fill: #5a2a27;
      }

      .cls-4 {
        fill: #b5a886;
      }

      .cls-5 {
        fill: #faf2db;
      }
    </style>
    <linearGradient id="linear-gradient" x1="0" y1="342.54" x2="406.41" y2="342.54" gradientUnits="userSpaceOnUse">
      <stop offset="0" stop-color="#b5a886"/>
      <stop offset=".03" stop-color="#b5a886" stop-opacity=".97"/>
      <stop offset=".08" stop-color="#b5a886" stop-opacity=".87"/>
      <stop offset=".13" stop-color="#b5a886" stop-opacity=".71"/>
      <stop offset=".19" stop-color="#b5a886" stop-opacity=".49"/>
      <stop offset=".25" stop-color="#b5a886" stop-opacity=".21"/>
      <stop offset=".25" stop-color="#b5a886" stop-opacity=".2"/>
      <stop offset=".28" stop-color="#b5a886" stop-opacity=".35"/>
      <stop offset=".32" stop-color="#b5a886" stop-opacity=".52"/>
      <stop offset=".37" stop-color="#b5a886" stop-opacity=".67"/>
      <stop offset=".43" stop-color="#b5a886" stop-opacity=".79"/>
      <stop offset=".49" stop-color="#b5a886" stop-opacity=".89"/>
      <stop offset=".57" stop-color="#b5a886" stop-opacity=".95"/>
      <stop offset=".69" stop-color="#b5a886" stop-opacity=".99"/>
      <stop offset="1" stop-color="#b5a886"/>
    </linearGradient>
    <linearGradient id="linear-gradient-2" x1="0" y1="251.31" x2="406.41" y2="251.31" xlink:href="#linear-gradient"/>
  </defs>
  <g>
    <g>
      <path class="cls-3" d="m688.1,207.32v76.34c0,32.3-6.86,55.62-20.57,69.94-13.71,14.33-36.11,21.48-67.19,21.48h-131.65V45.96s63.99,0,63.99,0v117.93c41.75-19.2,74.97-28.8,99.65-28.8,37.17,0,55.77,24.08,55.77,72.22Zm-155.42,117.48h90.51v-137.13c-12.19,1.83-26.21,5.57-42.05,11.2-15.85,5.64-32,12.57-48.46,20.8v105.13Z"/>
      <path class="cls-3" d="m893.8,141.95h64s0,233.13,0,233.13h-43.43l-12.34-26.97c-45.71,22.55-81.22,33.82-106.51,33.82-36.57,0-54.85-19.96-54.85-59.88v-180.11s64,0,64,0v187.42c19.2-4.26,48.91-15.84,89.13-34.74v-152.68Z"/>
      <path class="cls-3" d="m1234.34,194.98v180.1h-63.99v-187.42c-19.2,4.27-48.91,15.85-89.14,34.74v152.68h-63.99v-233.13h43.42s12.34,26.97,12.34,26.97c45.71-22.55,81.21-33.83,106.51-33.83,36.57,0,54.85,19.96,54.85,59.88Z"/>
    </g>
    <path class="cls-3" d="m1291.48,375.08V64.24h123.42c21.63,0,39.77,3.43,54.4,10.29,14.62,6.86,25.97,19.35,34.05,37.48,8.07,18.14,12.11,43.36,12.11,75.65v64c0,32.3-4.05,57.52-12.11,75.65-8.08,18.14-19.43,30.63-34.05,37.48-14.63,6.86-32.77,10.29-54.4,10.29h-123.42Zm68.57-249.13v187.42h84.57V125.95h-84.57Z"/>
    <path class="cls-3" d="m1789.72,375.08h-210.28V64.24h68.57v249.13h141.71v61.71Z"/>
  </g>
  <g>
    <path class="cls-1" d="m203.21,330.27c-56.68,0-110.07-8.28-150.33-23.3-23.79-8.88-41.88-19.85-52.88-31.99v52.8s0,10.41,0,10.41C0,356.01,20.88,374.01,57.27,387.6c38.88,14.52,90.71,22.51,145.93,22.51s107.05-7.99,145.94-22.51c36.4-13.59,57.27-31.59,57.27-49.41v-10.41s0-52.8,0-52.8c-10.99,12.14-29.09,23.11-52.87,31.99-40.25,15.03-93.64,23.3-150.33,23.3Z"/>
    <path class="cls-2" d="m203.21,240.21c-56.69,0-110.08-8.27-150.33-23.3C29.09,208.02,10.99,197.05,0,184.91v60.87c0,17.81,20.88,35.82,57.27,49.41,38.88,14.52,90.71,22.51,145.93,22.51,55.22,0,107.05-7.99,145.94-22.51,36.4-13.59,57.27-31.59,57.27-49.41v-60.86c-10.99,12.14-29.09,23.1-52.87,31.98-40.25,15.03-93.64,23.3-150.33,23.3Z"/>
    <path class="cls-4" d="m57.27,205.13c38.88,14.51,90.71,22.51,145.93,22.51s107.05-7.99,145.93-22.51c36.4-13.59,57.27-31.59,57.27-49.4,0-6.2-2.65-12.59-7.74-18.84.32,1.71.48,3.44.48,5.17,0,19.67-20.47,37.73-57.65,50.88-36.36,12.86-85.4,19.94-138.09,19.94s-101.73-7.08-138.09-19.94c-37.17-13.14-57.65-31.21-57.65-50.88,0-1.95.2-3.89.6-5.81C2.83,142.69,0,149.3,0,155.72c0,17.81,20.87,35.82,57.27,49.4Z"/>
    <path class="cls-4" d="m150.94,197.73c-28.64-2.85-55.12-8.06-77.31-15.33-33.93-11.1-53.38-25.79-53.38-40.34,0-14.54,19.45-29.25,53.38-40.35,13.57-4.44,28.75-8.12,45.05-10.96-10.26,12.62-15.28,26.28-15.28,41.48,0,7.18.87,14.02,2.6,20.34,1.72,6.3,4.32,12.17,7.74,17.47,3.91,6.06,8.93,11.43,14.92,15.99,6.33,4.82,13.74,8.71,22.28,11.7Z"/>
    <path class="cls-3" d="m279.57,174.62c-14.62,14.74-39.3,21.91-75.46,21.91-31.79,0-54.74-5.7-70.18-17.43-5.23-3.98-9.51-8.58-12.86-13.79-2.95-4.55-5.16-9.57-6.66-15.03-1.52-5.56-2.29-11.58-2.29-18.05,0-16.16,6.68-30.46,20.42-43.66,22.28-3.12,46.28-4.77,70.88-4.77,26.08,0,51.48,1.84,74.9,5.35,9.46,11.05,16.36,25.06,16.36,42.6,0,3.83,0,10.07-1.52,17.16-1.01,4.77-2.71,9.92-5.54,15-2.04,3.66-4.67,7.28-8.05,10.7Z"/>
    <path class="cls-4" d="m386.58,142.06c0,14.54-19.46,29.24-53.38,40.34-21.54,7.04-47.09,12.16-74.74,15.07,11.14-3.99,20.18-9.57,27.29-16.72,3.72-3.75,6.91-7.99,9.47-12.59,2.95-5.29,5.13-11.15,6.46-17.42,1.7-8,1.7-14.87,1.7-18.97,0-14.69-4.18-28.23-12.48-40.51,15.25,2.76,29.49,6.27,42.3,10.46,33.92,11.1,53.38,25.8,53.38,40.35Z"/>
    <path class="cls-5" d="m106,152.57c1.34,4.94,3.25,9.63,5.66,13.97-27.76-.88-48.2-6.56-62.35-17.31-5.23-3.98-9.51-8.58-12.86-13.79-2.95-4.55-5.16-9.57-6.66-15.03-1.52-5.56-2.29-11.58-2.29-18.05,0-16.7,7.13-31.4,21.81-44.98,6.83-6.31,14.86-12.06,23.81-17.85.93-.6,1.85-1.21,2.81-1.8,4.39-2.79,9.02-5.62,13.82-8.54,1.29-.77,2.56-1.54,3.87-2.34l.72-.44c3.12-2.2,5.7-4.43,7.69-6.33,2.9-2.76,4.57-4.83,4.79-5.13,2.82-3.86,7.13-6.26,11.89-6.26h.29c4.84.1,9.16,2.41,11.88,6.41.42.52,2.7,3.19,7.09,6.32,2.26,1.62,5.06,3.36,8.5,5l1.19.58c1.34.63,2.86,1.37,4.5,2.19,4.08,2,8.98,4.55,14.22,7.7,1.52.92,3.07,1.9,4.64,2.92,2.56,1.68,5.18,3.51,7.75,5.49-1.48,1.32-3.04,2.55-4.62,3.68l-.45.26-2.68,1.62-1.19.73c-4.24,2.56-9.22,5.6-13.98,8.62-.8.5-1.58,1.01-2.35,1.51l-.52.35c-10.81,6.98-18.53,12.78-25,18.76-3.48,3.23-6.59,6.52-9.33,9.89-10.26,12.62-15.28,26.28-15.28,41.48,0,7.18.87,14.02,2.6,20.34Z"/>
    <g>
      <path class="cls-3" d="m124.39,63.99c0,15.12-5.6,27.37-5.6,27.37,0,0-5.6-12.25-5.6-27.37,0-15.12,5.6-27.37,5.6-27.37,0,0,5.6,12.25,5.6,27.37Z"/>
      <path class="cls-3" d="m153.86,53.67c9.14,12.04,12.09,25.19,12.09,25.19,0,0-11.87-6.38-21.01-18.42-9.14-12.04-12.09-25.19-12.09-25.19,0,0,11.87,6.38,21.01,18.42Z"/>
      <path class="cls-3" d="m81.49,54.91c-9.14,12.04-12.09,25.19-12.09,25.19,0,0,11.87-6.38,21.01-18.42,9.14-12.04,12.09-25.19,12.09-25.19,0,0-11.87,6.38-21.01,18.42Z"/>
    </g>
    <path class="cls-5" d="m379.28,101.9c0,3.83,0,10.07-1.52,17.16-1.01,4.77-2.71,9.92-5.54,15-2.04,3.66-4.67,7.28-8.05,10.7-.46.46-.92.91-1.41,1.36-.47.45-.96.88-1.46,1.32-.5.44-1.01.86-1.52,1.27-.5.4-1,.78-1.51,1.17-.06.05-.12.1-.19.15-.5.37-1.01.73-1.53,1.09-.55.39-1.11.77-1.69,1.13-.57.37-1.17.75-1.77,1.09-.55.34-1.12.67-1.69.98-.09.05-.17.1-.26.15-.39.22-.78.44-1.19.63-.37.21-.76.41-1.14.6-2.39,1.21-4.93,2.31-7.61,3.32-2,.76-4.09,1.46-6.27,2.09-.7.21-1.39.4-2.1.6-.04.01-.09.02-.12.04-.73.2-1.48.39-2.24.57-.76.19-1.53.37-2.3.55-.7.16-1.39.31-2.1.45-.92.2-1.85.39-2.81.56-.77.15-1.56.29-2.35.41-.83.14-1.68.27-2.54.4-.85.12-1.72.25-2.59.36-2.61.35-5.31.63-8.1.87-2.79.22-5.66.41-8.62.53-.98.04-1.98.07-2.99.1,2.53-4.86,4.42-10.18,5.61-15.83,1.7-8,1.7-14.87,1.7-18.97,0-14.69-4.18-28.23-12.48-40.51-7.13-10.58-17.31-20.19-30.48-28.83-1.63-1.08-3.28-2.12-4.91-3.1-4.55-2.75-9.28-5.31-14.86-8.06-1.68-.83-3.23-1.58-4.59-2.23l-1.19-.58c-1.08-.52-2.15-1.07-3.17-1.67.07-.05.15-.11.22-.16.77-.56,1.56-1.11,2.34-1.65.85-.6,1.7-1.18,2.56-1.77.73-.5,1.47-1,2.21-1.48,1.08-.73,2.19-1.46,3.31-2.18.93-.6,1.85-1.21,2.81-1.8,4.39-2.79,9.02-5.62,13.82-8.54,1.29-.77,2.56-1.54,3.87-2.34l.72-.44c3.12-2.2,5.7-4.43,7.69-6.33,2.9-2.76,4.57-4.83,4.79-5.13,2.82-3.86,7.13-6.26,11.89-6.26h.29c4.84.1,9.16,2.41,11.88,6.41.42.52,2.7,3.19,7.09,6.32,2.26,1.62,5.06,3.36,8.5,5l1.19.58c1.34.63,2.86,1.37,4.5,2.19,4.08,2,8.98,4.55,14.22,7.7,1.52.92,3.07,1.9,4.64,2.92,18.59,12.18,39.02,31.89,39.02,62.06Z"/>
    <g>
      <path class="cls-3" d="m294.85,63.99c0,15.12-5.6,27.37-5.6,27.37,0,0-5.6-12.25-5.6-27.37,0-15.12,5.6-27.37,5.6-27.37,0,0,5.6,12.25,5.6,27.37Z"/>
      <path class="cls-3" d="m324.32,53.67c9.14,12.04,12.09,25.19,12.09,25.19,0,0-11.87-6.38-21.01-18.42-9.14-12.04-12.09-25.19-12.09-25.19,0,0,11.87,6.38,21.01,18.42Z"/>
      <path class="cls-3" d="m251.94,54.91c-9.14,12.04-12.09,25.19-12.09,25.19,0,0,11.87-6.38,21.01-18.42,9.14-12.04,12.09-25.19,12.09-25.19,0,0-11.87,6.38-21.01,18.42Z"/>
    </g>
    <path class="cls-5" d="m255.65,69.7c-1.57-1.03-3.12-2-4.64-2.92-5.23-3.15-10.14-5.7-14.21-7.71h0c-1.65-.81-3.17-1.55-4.51-2.19l-1.2-.58c-3.42-1.65-6.23-3.39-8.5-5.01-4.38-3.14-6.67-5.79-7.09-6.31-2.73-4-7.03-6.31-11.88-6.41-.09,0-.18,0-.28,0-4.77,0-9.07,2.4-11.9,6.26-.23.29-1.89,2.37-4.79,5.13-2,1.9-4.57,4.13-7.69,6.33l-.72.43c-1.31.79-2.59,1.57-3.87,2.34-4.81,2.91-9.43,5.74-13.83,8.53-.95.6-1.88,1.21-2.81,1.81-8.96,5.79-16.99,11.54-23.81,17.85-14.67,13.57-21.81,28.28-21.81,44.97,0,6.47.77,12.49,2.29,18.05,1.49,5.47,3.71,10.48,6.65,15.04,3.36,5.2,7.64,9.8,12.87,13.78,15.44,11.74,38.4,17.44,70.18,17.44,36.16,0,60.84-7.17,75.46-21.92,3.39-3.42,6.01-7.04,8.05-10.7,2.83-5.09,4.53-10.24,5.55-15,1.51-7.1,1.51-13.33,1.51-17.16,0-30.17-20.43-49.87-39.02-62.06Z"/>
    <path class="cls-4" d="m345.02,32.56c-1.63-1.08-3.28-2.12-4.91-3.1-4.55-2.75-9.28-5.31-14.86-8.06-1.68-.83-3.23-1.58-4.59-2.23l-1.19-.58c-2.58-1.23-5-2.66-7.2-4.24-3.04-2.16-4.75-3.99-5.26-4.57C302.67,3.71,295.91.15,288.39.01,288.24,0,288.09,0,287.94,0c-7.39,0-14.23,3.52-18.8,9.67-.29.35-1.64,1.98-3.89,4.13-2.03,1.93-4.21,3.73-6.46,5.35l-.45.26-2.68,1.62-1.19.73c-4.24,2.56-9.22,5.6-13.98,8.62-.8.5-1.58,1.01-2.35,1.51l-.52.35c-5.09,3.28-9.51,6.31-13.4,9.22-.95-.87-1.54-1.52-1.82-1.82-4.33-6.07-11.09-9.63-18.61-9.77-.15-.01-.3-.01-.45-.01-7.2,0-13.87,3.35-18.43,9.19-2.85-2.23-5.88-4.39-9.1-6.49-1.63-1.08-3.28-2.12-4.91-3.1-4.55-2.75-9.28-5.31-14.86-8.06-1.68-.83-3.23-1.58-4.59-2.23l-1.19-.58c-2.58-1.23-5-2.66-7.2-4.24-3.04-2.16-4.75-3.99-5.26-4.57C133.46,3.71,126.7.15,119.18.01,119.03,0,118.88,0,118.73,0c-7.39,0-14.23,3.52-18.8,9.67-.29.35-1.64,1.98-3.89,4.13-2.03,1.93-4.21,3.73-6.46,5.35l-.45.26-2.68,1.62-1.19.73c-4.24,2.56-9.22,5.6-13.98,8.62-.8.5-1.58,1.01-2.35,1.51l-.52.35c-10.81,6.98-18.53,12.78-25,18.76-16.56,15.32-24.61,32.11-24.61,51.37,0,7.18.87,14.02,2.6,20.34,1.72,6.3,4.32,12.17,7.74,17.47,3.91,6.06,8.93,11.43,14.92,15.99,16.68,12.69,40.76,18.97,73.56,19.2,3.17,3.92,6.88,7.49,11.05,10.66,6.33,4.82,13.74,8.71,22.28,11.7,16.88,1.7,34.53,2.58,52.47,2.58,18.86,0,37.39-.97,55.06-2.84,11.14-3.99,20.18-9.57,27.29-16.72,1.68-1.69,3.26-3.48,4.7-5.37,37.67-.24,63.81-8.25,79.9-24.49,3.72-3.75,6.91-7.99,9.47-12.59,2.95-5.29,5.13-11.15,6.46-17.42,1.7-8,1.7-14.87,1.7-18.97,0-27.33-14.46-50.66-42.96-69.34ZM49.32,149.24c-5.23-3.98-9.51-8.58-12.86-13.79-2.95-4.55-5.16-9.57-6.66-15.03-1.52-5.56-2.29-11.58-2.29-18.05,0-16.7,7.13-31.4,21.81-44.98,6.83-6.31,14.86-12.06,23.81-17.85.93-.6,1.85-1.21,2.81-1.8,4.39-2.79,9.02-5.62,13.82-8.54,1.29-.77,2.56-1.54,3.87-2.34l.72-.44c3.12-2.2,5.7-4.43,7.69-6.33,2.9-2.76,4.57-4.83,4.79-5.13,2.82-3.86,7.13-6.26,11.89-6.26h.29c4.84.1,9.16,2.41,11.88,6.41.42.52,2.7,3.19,7.09,6.32,2.26,1.62,5.06,3.36,8.5,5l1.19.58c1.34.63,2.86,1.37,4.5,2.19,4.08,2,8.98,4.55,14.22,7.7,1.52.92,3.07,1.9,4.64,2.92,2.56,1.68,5.18,3.51,7.75,5.49-1.48,1.32-3.04,2.55-4.62,3.68l-.45.26-2.68,1.62-1.19.73c-4.24,2.56-9.22,5.6-13.98,8.62-.8.5-1.58,1.01-2.35,1.51l-.52.35c-10.81,6.98-18.53,12.78-25,18.76-3.48,3.23-6.59,6.52-9.33,9.89-10.26,12.62-15.28,26.28-15.28,41.48,0,7.18.87,14.02,2.6,20.34,1.34,4.94,3.25,9.63,5.66,13.97-27.76-.88-48.2-6.56-62.35-17.31Zm243.84-.32c-1.01,4.77-2.71,9.92-5.54,15-.51.92-1.06,1.83-1.64,2.74-1.75,2.71-3.87,5.4-6.41,7.96-.2.2-.4.4-.6.57-14.69,14.36-39.19,21.34-74.86,21.34-31.79,0-54.74-5.7-70.18-17.43-1.63-1.24-3.16-2.54-4.6-3.91-2.79-2.61-5.25-5.46-7.35-8.54-.31-.45-.62-.9-.91-1.34-2.95-4.55-5.16-9.57-6.66-15.03-1.52-5.56-2.29-11.58-2.29-18.05,0-16.16,6.68-30.46,20.42-43.66.46-.45.92-.88,1.39-1.32,6.83-6.31,14.86-12.06,23.81-17.85.93-.6,1.85-1.21,2.81-1.8,4.39-2.79,9.02-5.62,13.82-8.54,1.29-.77,2.56-1.54,3.87-2.34l.72-.44c2.59-1.83,4.8-3.67,6.61-5.33.39-.35.75-.68,1.08-1.01,2.9-2.76,4.57-4.83,4.79-5.13.05-.06.09-.12.14-.19,2.82-3.75,7.07-6.07,11.76-6.07h.29c4.84.1,9.16,2.41,11.88,6.41.2.24.78.93,1.79,1.93,1.18,1.16,2.94,2.7,5.3,4.39.52.37,1.08.76,1.67,1.13,1.93,1.28,4.19,2.61,6.83,3.87l1.19.58c1.34.63,2.86,1.37,4.5,2.19,4.08,2,8.98,4.55,14.22,7.7,1.52.92,3.07,1.9,4.64,2.92,7.78,5.09,15.88,11.51,22.66,19.46,9.46,11.05,16.36,25.06,16.36,42.6,0,3.83,0,10.07-1.52,17.16Zm84.6-29.86c-1.01,4.77-2.71,9.92-5.54,15-2.04,3.66-4.67,7.28-8.05,10.7-.46.46-.92.91-1.41,1.36-.47.45-.96.9-1.46,1.32-.5.44-1,.86-1.52,1.27-.49.4-1,.8-1.51,1.17-.06.05-.12.1-.19.15-.5.37-1.01.73-1.53,1.09-.55.39-1.11.77-1.69,1.13-.57.37-1.17.75-1.77,1.09-.55.35-1.12.67-1.69.98-.09.05-.17.1-.26.15-.39.22-.78.44-1.19.63-.37.21-.76.41-1.14.6-2.39,1.21-4.93,2.31-7.61,3.32-2,.76-4.09,1.46-6.27,2.09-.7.21-1.39.4-2.1.6-.04.01-.09.02-.12.04-.73.2-1.48.39-2.24.57-.76.19-1.53.37-2.3.55-.7.16-1.39.31-2.1.45-.92.2-1.85.39-2.81.56-.77.15-1.56.29-2.35.41-.83.14-1.68.27-2.54.4-.85.12-1.72.25-2.59.36-2.61.35-5.31.63-8.1.87-2.79.22-5.66.41-8.62.53-.98.04-1.98.07-2.99.1,2.53-4.86,4.42-10.18,5.61-15.83,1.7-8,1.7-14.87,1.7-18.97,0-14.69-4.18-28.23-12.48-40.51-7.13-10.58-17.31-20.19-30.48-28.83-1.63-1.08-3.28-2.12-4.91-3.1-4.55-2.75-9.28-5.31-14.86-8.06-1.68-.83-3.23-1.58-4.59-2.23l-1.19-.58c-1.08-.52-2.15-1.07-3.17-1.67.07-.05.15-.11.22-.16.77-.56,1.56-1.11,2.34-1.65.85-.6,1.7-1.18,2.56-1.77.73-.5,1.47-1,2.21-1.48,1.08-.73,2.19-1.46,3.31-2.18.93-.6,1.85-1.21,2.81-1.8,4.39-2.79,9.02-5.62,13.82-8.54,1.29-.77,2.56-1.54,3.87-2.34l.72-.44c3.12-2.2,5.7-4.43,7.69-6.33,2.9-2.76,4.57-4.83,4.79-5.13,2.82-3.86,7.13-6.26,11.89-6.26h.29c4.84.1,9.16,2.41,11.88,6.41.42.52,2.7,3.19,7.09,6.32,2.26,1.62,5.06,3.36,8.5,5l1.19.58c1.34.63,2.86,1.37,4.5,2.19,4.08,2,8.98,4.55,14.22,7.7,1.52.92,3.07,1.9,4.64,2.92,18.59,12.18,39.02,31.89,39.02,62.06,0,3.83,0,10.07-1.52,17.16Z"/>
    <g>
      <path class="cls-3" d="m210.19,88.05c0,15.12-5.6,27.37-5.6,27.37,0,0-5.6-12.25-5.6-27.37,0-15.12,5.6-27.37,5.6-27.37,0,0,5.6,12.25,5.6,27.37Z"/>
      <path class="cls-3" d="m239.66,77.73c9.14,12.04,12.09,25.19,12.09,25.19,0,0-11.87-6.38-21.01-18.42-9.14-12.04-12.09-25.19-12.09-25.19,0,0,11.87,6.38,21.01,18.42Z"/>
      <path class="cls-3" d="m167.29,78.97c-9.14,12.04-12.09,25.19-12.09,25.19,0,0,11.87-6.38,21.01-18.42,9.14-12.04,12.09-25.19,12.09-25.19,0,0-11.87,6.38-21.01,18.42Z"/>
    </g>
  </g>
</svg>