<?xml version="1.0" encoding="UTF-8"?>
<svg id="Layer_1" data-name="Layer 1" xmlns="http://www.w3.org/2000/svg" xmlns:xlink="http://www.w3.org/1999/xlink" viewBox="0 0 512 512">
  <defs>
    <style>
      .cls-1 {
        fill: url(#linear-gradient);
      }

      .cls-1, .cls-2, .cls-3, .cls-4, .cls-5 {
        stroke-width: 0px;
      }

      .cls-2 {
        fill: url(#linear-gradient-2);
      }

      .cls-3 {
        fill: #5a2a27;
      }

      .cls-4 {
        fill: #b5a886;
      }

      .cls-5 {
        fill: #faf2db;
      }
    </style>
    <linearGradient id="linear-gradient" x1="20.77" y1="415.89" x2="492.17" y2="415.89" gradientUnits="userSpaceOnUse">
      <stop offset="0" stop-color="#b5a886"/>
      <stop offset=".03" stop-color="#b5a886" stop-opacity=".97"/>
      <stop offset=".08" stop-color="#b5a886" stop-opacity=".87"/>
      <stop offset=".13" stop-color="#b5a886" stop-opacity=".71"/>
      <stop offset=".19" stop-color="#b5a886" stop-opacity=".49"/>
      <stop offset=".25" stop-color="#b5a886" stop-opacity=".21"/>
      <stop offset=".25" stop-color="#b5a886" stop-opacity=".2"/>
      <stop offset=".28" stop-color="#b5a886" stop-opacity=".35"/>
      <stop offset=".32" stop-color="#b5a886" stop-opacity=".52"/>
      <stop offset=".37" stop-color="#b5a886" stop-opacity=".67"/>
      <stop offset=".43" stop-color="#b5a886" stop-opacity=".79"/>
      <stop offset=".49" stop-color="#b5a886" stop-opacity=".89"/>
      <stop offset=".57" stop-color="#b5a886" stop-opacity=".95"/>
      <stop offset=".69" stop-color="#b5a886" stop-opacity=".99"/>
      <stop offset="1" stop-color="#b5a886"/>
    </linearGradient>
    <linearGradient id="linear-gradient-2" x1="20.77" y1="310.06" x2="492.17" y2="310.06" xlink:href="#linear-gradient"/>
  </defs>
  <path class="cls-1" d="m256.47,401.65c-65.75,0-127.67-9.6-174.37-27.03-27.59-10.3-48.58-23.02-61.33-37.1v61.25s0,12.08,0,12.08c0,20.66,24.21,41.55,66.43,57.31,45.1,16.84,105.22,26.11,169.27,26.11s124.17-9.27,169.27-26.11c42.21-15.76,66.43-36.65,66.43-57.31v-12.08s0-61.24,0-61.24c-12.75,14.08-33.74,26.8-61.33,37.1-46.69,17.43-108.62,27.03-174.37,27.03Z"/>
  <path class="cls-2" d="m256.47,297.18c-65.75,0-127.68-9.6-174.37-27.03-27.6-10.3-48.58-23.02-61.33-37.1v70.6c0,20.66,24.21,41.54,66.43,57.31,45.1,16.84,105.22,26.11,169.27,26.11,64.06,0,124.17-9.27,169.27-26.11,42.21-15.76,66.43-36.65,66.43-57.31v-70.59c-12.75,14.08-33.74,26.8-61.33,37.1-46.69,17.43-108.61,27.03-174.37,27.03Z"/>
  <path class="cls-4" d="m87.2,256.49c45.1,16.83,105.21,26.11,169.27,26.11s124.17-9.27,169.27-26.11c42.22-15.76,66.43-36.64,66.43-57.3,0-7.19-3.07-14.6-8.98-21.85.37,1.99.55,3.99.55,6,0,22.81-23.75,43.77-66.86,59.01-42.18,14.91-99.06,23.13-160.17,23.13s-117.99-8.21-160.17-23.13c-43.12-15.25-66.86-36.2-66.86-59.01,0-2.26.23-4.51.7-6.74-6.32,7.48-9.6,15.14-9.6,22.59,0,20.66,24.21,41.55,66.43,57.3Z"/>
  <path class="cls-4" d="m195.85,247.91c-33.22-3.3-63.93-9.35-89.68-17.78-39.35-12.87-61.91-29.92-61.91-46.79,0-16.87,22.56-33.93,61.91-46.8,15.74-5.15,33.35-9.42,52.26-12.71-11.91,14.63-17.72,30.48-17.72,48.11,0,8.33,1.01,16.26,3.02,23.6,1.99,7.3,5.01,14.11,8.98,20.26,4.53,7.03,10.36,13.26,17.3,18.54,7.35,5.58,15.93,10.1,25.85,13.57Z"/>
  <path class="cls-3" d="m345.04,221.11c-16.96,17.1-45.59,25.41-87.53,25.41-36.87,0-63.5-6.61-81.41-20.22-6.06-4.62-11.03-9.96-14.92-15.99-3.42-5.28-5.99-11.1-7.72-17.43-1.76-6.45-2.66-13.44-2.66-20.94,0-18.75,7.75-35.33,23.68-50.64,25.85-3.62,53.68-5.53,82.22-5.53,30.25,0,59.72,2.14,86.88,6.21,10.97,12.81,18.98,29.06,18.98,49.41,0,4.44,0,11.67-1.76,19.9-1.17,5.53-3.15,11.5-6.42,17.4-2.37,4.24-5.41,8.44-9.34,12.41Z"/>
  <path class="cls-4" d="m469.16,183.35c0,16.87-22.57,33.91-61.91,46.79-24.98,8.17-54.62,14.1-86.69,17.48,12.92-4.63,23.41-11.1,31.65-19.4,4.31-4.34,8.01-9.26,10.98-14.6,3.42-6.13,5.95-12.93,7.49-20.2,1.98-9.28,1.98-17.25,1.98-22.01,0-17.04-4.85-32.74-14.47-46.99,17.69,3.2,34.2,7.27,49.07,12.14,39.34,12.87,61.91,29.93,61.91,46.8Z"/>
  <path class="cls-5" d="m143.72,195.54c1.56,5.73,3.77,11.17,6.57,16.21-32.2-1.02-55.91-7.61-72.32-20.07-6.06-4.62-11.03-9.96-14.92-15.99-3.42-5.28-5.99-11.1-7.72-17.43-1.76-6.45-2.66-13.44-2.66-20.94,0-19.37,8.27-36.42,25.3-52.17,7.92-7.32,17.23-13.98,27.62-20.71,1.08-.69,2.15-1.4,3.26-2.09,5.09-3.23,10.46-6.52,16.03-9.9,1.5-.89,2.97-1.79,4.49-2.71l.84-.51c3.62-2.55,6.61-5.14,8.92-7.35,3.36-3.2,5.3-5.6,5.56-5.95,3.28-4.47,8.27-7.26,13.8-7.26h.33c5.61.12,10.62,2.8,13.78,7.43.49.61,3.13,3.69,8.23,7.33,2.63,1.88,5.87,3.9,9.86,5.8l1.39.68c1.56.74,3.32,1.59,5.22,2.54,4.73,2.32,10.42,5.28,16.5,8.93,1.76,1.07,3.56,2.21,5.38,3.39,2.97,1.95,6,4.07,8.99,6.36-1.72,1.53-3.52,2.96-5.35,4.27l-.52.3-3.1,1.88-1.39.85c-4.92,2.97-10.69,6.49-16.22,10-.92.58-1.83,1.17-2.73,1.75l-.61.4c-12.54,8.1-21.49,14.82-28.99,21.76-4.04,3.75-7.65,7.56-10.82,11.47-11.91,14.63-17.72,30.48-17.72,48.11,0,8.33,1.01,16.26,3.02,23.6Z"/>
  <g>
    <path class="cls-3" d="m165.05,92.8c0,17.53-6.49,31.75-6.49,31.75,0,0-6.49-14.21-6.49-31.75,0-17.53,6.49-31.75,6.49-31.75,0,0,6.49,14.21,6.49,31.75Z"/>
    <path class="cls-3" d="m199.24,80.82c10.6,13.97,14.02,29.22,14.02,29.22,0,0-13.77-7.4-24.37-21.36-10.6-13.97-14.02-29.22-14.02-29.22,0,0,13.77,7.4,24.37,21.36Z"/>
    <path class="cls-3" d="m115.29,82.26c-10.6,13.97-14.02,29.22-14.02,29.22,0,0,13.77-7.4,24.37-21.36,10.6-13.97,14.02-29.22,14.02-29.22,0,0-13.77,7.4-24.37,21.36Z"/>
  </g>
  <path class="cls-5" d="m460.69,136.76c0,4.44,0,11.67-1.76,19.9-1.17,5.53-3.15,11.5-6.42,17.4-2.37,4.24-5.41,8.44-9.34,12.41-.53.53-1.07,1.05-1.63,1.57-.55.52-1.11,1.02-1.69,1.53-.58.51-1.17,1-1.76,1.47-.58.46-1.15.91-1.75,1.36-.07.06-.14.12-.22.17-.58.43-1.17.85-1.78,1.27-.63.45-1.28.89-1.96,1.31-.66.43-1.36.87-2.05,1.27-.63.39-1.3.78-1.96,1.14-.1.06-.2.12-.3.17-.45.26-.91.51-1.39.74-.43.25-.88.48-1.33.69-2.77,1.4-5.71,2.68-8.83,3.85-2.32.88-4.75,1.69-7.27,2.42-.81.25-1.62.46-2.44.69-.04.01-.1.03-.14.04-.85.23-1.72.45-2.6.66-.88.22-1.78.43-2.67.63-.81.19-1.62.36-2.44.52-1.07.23-2.15.45-3.26.65-.89.17-1.8.33-2.73.48-.97.16-1.95.32-2.94.46-.98.14-1.99.29-3,.42-3.03.4-6.16.74-9.39,1.01-3.23.26-6.57.48-10,.62-1.14.04-2.29.09-3.46.12,2.93-5.64,5.12-11.8,6.51-18.36,1.98-9.28,1.98-17.25,1.98-22.01,0-17.04-4.85-32.74-14.47-46.99-8.27-12.27-20.07-23.42-35.36-33.44-1.89-1.26-3.81-2.45-5.7-3.59-5.28-3.19-10.77-6.16-17.23-9.35-1.95-.97-3.75-1.83-5.33-2.58l-1.39-.68c-1.26-.61-2.5-1.24-3.68-1.93.09-.06.17-.13.26-.19.89-.65,1.8-1.28,2.71-1.92.98-.69,1.98-1.37,2.97-2.05.85-.58,1.7-1.15,2.57-1.72,1.26-.85,2.54-1.69,3.84-2.53,1.08-.69,2.15-1.4,3.26-2.09,5.09-3.23,10.46-6.52,16.03-9.9,1.5-.89,2.97-1.79,4.49-2.71l.84-.51c3.62-2.55,6.61-5.14,8.92-7.35,3.36-3.2,5.3-5.6,5.56-5.95,3.28-4.47,8.27-7.26,13.8-7.26h.33c5.61.12,10.62,2.8,13.78,7.43.49.61,3.13,3.69,8.23,7.33,2.63,1.88,5.87,3.9,9.86,5.8l1.39.68c1.56.74,3.32,1.59,5.22,2.54,4.73,2.32,10.42,5.28,16.5,8.93,1.76,1.07,3.56,2.21,5.38,3.39,21.56,14.13,45.26,36.99,45.26,71.98Z"/>
  <g>
    <path class="cls-3" d="m362.76,92.8c0,17.53-6.49,31.75-6.49,31.75,0,0-6.49-14.21-6.49-31.75,0-17.53,6.49-31.75,6.49-31.75,0,0,6.49,14.21,6.49,31.75Z"/>
    <path class="cls-3" d="m396.95,80.82c10.6,13.97,14.02,29.22,14.02,29.22,0,0-13.77-7.4-24.37-21.36-10.6-13.97-14.02-29.22-14.02-29.22,0,0,13.77,7.4,24.37,21.36Z"/>
    <path class="cls-3" d="m313,82.26c-10.6,13.97-14.02,29.22-14.02,29.22,0,0,13.77-7.4,24.37-21.36,10.6-13.97,14.02-29.22,14.02-29.22,0,0-13.77,7.4-24.37,21.36Z"/>
  </g>
  <path class="cls-5" d="m317.3,99.41c-1.82-1.19-3.61-2.32-5.38-3.39-6.06-3.66-11.76-6.61-16.48-8.94h0c-1.91-.94-3.68-1.79-5.23-2.54l-1.39-.67c-3.97-1.91-7.23-3.94-9.85-5.81-5.09-3.64-7.73-6.72-8.23-7.32-3.16-4.64-8.16-7.32-13.78-7.43-.11,0-.21,0-.32,0-5.53,0-10.52,2.78-13.8,7.26-.27.34-2.19,2.75-5.56,5.95-2.31,2.21-5.3,4.79-8.92,7.34l-.83.5c-1.52.92-3,1.82-4.49,2.72-5.58,3.38-10.94,6.66-16.04,9.89-1.1.7-2.18,1.4-3.26,2.1-10.39,6.72-19.7,13.38-27.62,20.71-17.02,15.74-25.29,32.8-25.29,52.17,0,7.51.9,14.48,2.65,20.93,1.73,6.34,4.31,12.16,7.72,17.44,3.89,6.03,8.86,11.37,14.93,15.98,17.91,13.61,44.54,20.23,81.4,20.23,41.94,0,70.57-8.32,87.53-25.43,3.93-3.96,6.97-8.17,9.33-12.41,3.29-5.9,5.26-11.87,6.43-17.4,1.75-8.23,1.76-15.46,1.76-19.91,0-34.99-23.7-57.85-45.26-71.98Z"/>
  <path class="cls-4" d="m420.96,56.34c-1.89-1.26-3.81-2.45-5.7-3.59-5.28-3.19-10.77-6.16-17.23-9.35-1.95-.97-3.75-1.83-5.33-2.58l-1.39-.68c-2.99-1.43-5.8-3.09-8.36-4.92-3.52-2.51-5.51-4.63-6.1-5.3-5.02-7.04-12.86-11.17-21.59-11.33-.17-.01-.35-.01-.52-.01-8.57,0-16.51,4.08-21.81,11.21-.33.4-1.9,2.29-4.52,4.79-2.35,2.24-4.88,4.33-7.49,6.21l-.52.3-3.1,1.88-1.39.85c-4.92,2.97-10.69,6.49-16.22,10-.92.58-1.83,1.17-2.73,1.75l-.61.4c-5.9,3.81-11.03,7.32-15.54,10.69-1.1-1.01-1.79-1.76-2.11-2.11-5.02-7.04-12.86-11.17-21.59-11.33-.17-.01-.35-.01-.52-.01-8.36,0-16.09,3.88-21.37,10.66-3.3-2.58-6.83-5.09-10.55-7.53-1.89-1.26-3.81-2.45-5.7-3.59-5.28-3.19-10.77-6.16-17.23-9.35-1.95-.97-3.75-1.83-5.33-2.58l-1.39-.68c-2.99-1.43-5.8-3.09-8.36-4.92-3.52-2.51-5.51-4.63-6.1-5.3-5.02-7.04-12.86-11.17-21.59-11.33-.17-.01-.35-.01-.52-.01-8.57,0-16.51,4.08-21.81,11.21-.33.4-1.9,2.29-4.52,4.79-2.35,2.24-4.88,4.33-7.49,6.21l-.52.3-3.1,1.88-1.39.85c-4.92,2.97-10.69,6.49-16.22,10-.92.58-1.83,1.17-2.73,1.75l-.61.4c-12.54,8.1-21.49,14.82-28.99,21.76-19.21,17.76-28.55,37.25-28.55,59.59,0,8.33,1.01,16.26,3.02,23.6,1.99,7.3,5.01,14.11,8.98,20.26,4.53,7.03,10.36,13.26,17.3,18.54,19.35,14.72,47.28,22.01,85.32,22.27,3.68,4.55,7.98,8.69,12.81,12.37,7.35,5.58,15.93,10.1,25.85,13.57,19.58,1.98,40.05,2.99,60.86,2.99,21.88,0,43.37-1.13,63.86-3.29,12.92-4.63,23.41-11.1,31.65-19.4,1.95-1.96,3.78-4.04,5.46-6.23,43.7-.27,74.02-9.57,92.68-28.4,4.31-4.34,8.01-9.26,10.98-14.6,3.42-6.13,5.95-12.93,7.49-20.2,1.98-9.28,1.98-17.25,1.98-22.01,0-31.71-16.77-58.76-49.83-80.43ZM77.97,191.67c-6.06-4.62-11.03-9.96-14.92-15.99-3.42-5.28-5.99-11.1-7.72-17.43-1.76-6.45-2.66-13.44-2.66-20.94,0-19.37,8.27-36.42,25.3-52.17,7.92-7.32,17.23-13.98,27.62-20.71,1.08-.69,2.15-1.4,3.26-2.09,5.09-3.23,10.46-6.52,16.03-9.9,1.5-.89,2.97-1.79,4.49-2.71l.84-.51c3.62-2.55,6.61-5.14,8.92-7.35,3.36-3.2,5.3-5.6,5.56-5.95,3.28-4.47,8.27-7.26,13.8-7.26h.33c5.61.12,10.62,2.8,13.78,7.43.49.61,3.13,3.69,8.23,7.33,2.63,1.88,5.87,3.9,9.86,5.8l1.39.68c1.56.74,3.32,1.59,5.22,2.54,4.73,2.32,10.42,5.28,16.5,8.93,1.76,1.07,3.56,2.21,5.38,3.39,2.97,1.95,6,4.07,8.99,6.36-1.72,1.53-3.52,2.96-5.35,4.27l-.52.3-3.1,1.88-1.39.85c-4.92,2.97-10.69,6.49-16.22,10-.92.58-1.83,1.17-2.73,1.75l-.61.4c-12.54,8.1-21.49,14.82-28.99,21.76-4.04,3.75-7.65,7.56-10.82,11.47-11.91,14.63-17.72,30.48-17.72,48.11,0,8.33,1.01,16.26,3.02,23.6,1.56,5.73,3.77,11.17,6.57,16.21-32.2-1.02-55.91-7.61-72.32-20.07Zm282.83-.38c-1.17,5.53-3.15,11.5-6.42,17.4-.59,1.07-1.23,2.12-1.9,3.17-2.03,3.15-4.49,6.26-7.43,9.24-.23.23-.46.46-.69.66-17.04,16.65-45.46,24.75-86.83,24.75-36.87,0-63.5-6.61-81.41-20.22-1.89-1.44-3.67-2.94-5.34-4.53-3.23-3.03-6.09-6.34-8.53-9.9-.36-.52-.72-1.04-1.05-1.56-3.42-5.28-5.99-11.1-7.72-17.43-1.76-6.45-2.66-13.44-2.66-20.94,0-18.75,7.75-35.33,23.68-50.64.53-.52,1.07-1.02,1.62-1.53,7.92-7.32,17.23-13.98,27.62-20.71,1.08-.69,2.15-1.4,3.26-2.09,5.09-3.23,10.46-6.52,16.03-9.9,1.5-.89,2.97-1.79,4.49-2.71l.84-.51c3-2.12,5.57-4.26,7.66-6.18.45-.4.87-.79,1.26-1.17,3.36-3.2,5.3-5.6,5.56-5.95.06-.07.1-.14.16-.22,3.28-4.34,8.2-7.04,13.64-7.04h.33c5.61.12,10.62,2.8,13.78,7.43.23.27.91,1.08,2.08,2.24,1.37,1.34,3.41,3.13,6.15,5.09.61.43,1.26.88,1.93,1.31,2.24,1.49,4.86,3.03,7.92,4.49l1.39.68c1.56.74,3.32,1.59,5.22,2.54,4.73,2.32,10.42,5.28,16.5,8.93,1.76,1.07,3.56,2.21,5.38,3.39,9.02,5.9,18.41,13.35,26.28,22.57,10.97,12.81,18.98,29.06,18.98,49.41,0,4.44,0,11.67-1.76,19.9Zm98.13-34.64c-1.17,5.53-3.15,11.5-6.42,17.4-2.37,4.24-5.41,8.44-9.34,12.41-.53.53-1.07,1.05-1.63,1.57-.55.52-1.11,1.04-1.69,1.53-.58.51-1.15,1-1.76,1.47-.56.46-1.15.92-1.75,1.36-.07.06-.14.12-.22.17-.58.43-1.17.85-1.78,1.27-.63.45-1.28.89-1.96,1.31-.66.43-1.36.87-2.05,1.27-.63.4-1.3.78-1.96,1.14-.1.06-.2.12-.3.17-.45.26-.91.51-1.39.74-.43.25-.88.48-1.33.69-2.77,1.4-5.71,2.68-8.83,3.85-2.32.88-4.75,1.69-7.27,2.42-.81.25-1.62.46-2.44.69-.04.01-.1.03-.14.04-.85.23-1.72.45-2.6.66-.88.22-1.78.43-2.67.63-.81.19-1.62.36-2.44.52-1.07.23-2.15.45-3.26.65-.89.17-1.8.33-2.73.48-.97.16-1.95.32-2.94.46-.98.14-1.99.29-3,.42-3.03.4-6.16.74-9.39,1.01-3.23.26-6.57.48-10,.62-1.14.04-2.29.09-3.46.12,2.93-5.64,5.12-11.8,6.51-18.36,1.98-9.28,1.98-17.25,1.98-22.01,0-17.04-4.85-32.74-14.47-46.99-8.27-12.27-20.07-23.42-35.36-33.44-1.89-1.26-3.81-2.45-5.7-3.59-5.28-3.19-10.77-6.16-17.23-9.35-1.95-.97-3.75-1.83-5.33-2.58l-1.39-.68c-1.26-.61-2.5-1.24-3.68-1.93.09-.06.17-.13.26-.19.89-.65,1.8-1.28,2.71-1.92.98-.69,1.98-1.37,2.97-2.05.85-.58,1.7-1.15,2.57-1.72,1.26-.85,2.54-1.69,3.84-2.53,1.08-.69,2.15-1.4,3.26-2.09,5.09-3.23,10.46-6.52,16.03-9.9,1.5-.89,2.97-1.79,4.49-2.71l.84-.51c3.62-2.55,6.61-5.14,8.92-7.35,3.36-3.2,5.3-5.6,5.56-5.95,3.28-4.47,8.27-7.26,13.8-7.26h.33c5.61.12,10.62,2.8,13.78,7.43.49.61,3.13,3.69,8.23,7.33,2.63,1.88,5.87,3.9,9.86,5.8l1.39.68c1.56.74,3.32,1.59,5.22,2.54,4.73,2.32,10.42,5.28,16.5,8.93,1.76,1.07,3.56,2.21,5.38,3.39,21.56,14.13,45.26,36.99,45.26,71.98,0,4.44,0,11.67-1.76,19.9Z"/>
  <g>
    <path class="cls-3" d="m264.57,120.7c0,17.53-6.49,31.75-6.49,31.75,0,0-6.49-14.21-6.49-31.75,0-17.53,6.49-31.75,6.49-31.75,0,0,6.49,14.21,6.49,31.75Z"/>
    <path class="cls-3" d="m298.75,108.72c10.6,13.97,14.02,29.22,14.02,29.22,0,0-13.77-7.4-24.37-21.36-10.6-13.97-14.02-29.22-14.02-29.22,0,0,13.77,7.4,24.37,21.36Z"/>
    <path class="cls-3" d="m214.81,110.17c-10.6,13.97-14.02,29.22-14.02,29.22,0,0,13.77-7.4,24.37-21.36,10.6-13.97,14.02-29.22,14.02-29.22,0,0-13.77,7.4-24.37,21.36Z"/>
  </g>
</svg>