<?xml version="1.0" encoding="utf-8"?>
<!-- Generator: Adobe Illustrator 28.0.0, SVG Export Plug-In . SVG Version: 6.00 Build 0)  -->
<svg version="1.1" id="Layer_1" xmlns="http://www.w3.org/2000/svg" xmlns:xlink="http://www.w3.org/1999/xlink" x="0px" y="0px"
	 viewBox="0 0 512 512" style="enable-background:new 0 0 512 512;" xml:space="preserve">
<style type="text/css">
	.st0{fill:#6CCB99;}
</style>
<path class="st0" d="M90.1,6c0.2,0,0.3,0,0.5,0c36.5,48.3,73,96.7,109.5,145.1c1.4,1.8,2.9,2.5,5.1,2.4c34.7-0.1,69.5-0.1,104.2,0
	c2.6,0,4.2-0.8,5.8-2.9C350.5,103.3,386,56.1,421.4,8.9c0.7-0.9,1.2-1.9,1.8-2.9c0.2,0,0.3,0,0.5,0c0.4,2,0.9,3.9,1.2,5.9
	c6.9,36.8,13.7,73.6,20.6,110.5c1.4,7.3,2.9,14.6,4.3,21.8c0,0.2,0,0.3,0,0.5c-0.6,0.5-1.2,1.1-1.8,1.6
	c-24.7,24.2-49.4,48.4-74.2,72.5c-2.9,2.8-2.9,2.8-0.9,6.2c16.6,29.4,33.2,58.8,49.9,88.2c1.1,1.9,1.3,3.3,0.2,5.3
	c-35.1,61.5-70.2,123.1-105.3,184.6c-1.1,2-2.4,2.8-4.7,2.8c-37.2-0.1-74.5-0.1-111.7,0c-2.3,0-3.6-0.8-4.8-2.8
	c-34.7-61.3-69.5-122.6-104.3-183.8c-1.4-2.5-1.5-4.3,0-6.8c16.6-29.5,33.1-59,49.8-88.5c1.1-1.9,0.9-3-0.7-4.5
	c-25.9-24.4-51.7-48.8-77.6-73.2c-1.3-1.3-1.7-2.4-1.3-4.3C69.8,106.2,77.1,70.1,84.5,34C86.4,24.7,88.2,15.3,90.1,6z"/>
</svg>
